REM DIRINDEX 1\2,1\3,1\4,1\5
REM DIRNAME cjc044,folder01,folder02,folder03,folder04
TITLE ""
FILE "1800_166.mp3" MP3
  TRACK 01 AUDIO
    TITLE "2:cjc044_5484"
    INDEX 01 00:00:00
  TRACK 02 AUDIO
    TITLE "0:"
    INDEX 01 00:01:15
  TRACK 03 AUDIO
    TITLE "3:cjc044_5485"
    INDEX 01 00:01:64
  TRACK 04 AUDIO
    TITLE "0:"
    INDEX 01 00:02:57
  TRACK 05 AUDIO
    TITLE "4:cjc044_5486"
    INDEX 01 00:03:27
  TRACK 06 AUDIO
    TITLE "0:"
    INDEX 01 00:04:60
  TRACK 07 AUDIO
    TITLE "2:cjc044_5487"
    INDEX 01 00:06:31
  TRACK 08 AUDIO
    TITLE "0:"
    INDEX 01 00:08:05
  TRACK 09 AUDIO
    TITLE "3:cjc044_5488"
    INDEX 01 00:08:52
  TRACK 10 AUDIO
    TITLE "0:"
    INDEX 01 00:10:06
  TRACK 11 AUDIO
    TITLE "4:cjc044_5489"
    INDEX 01 00:10:49
  TRACK 12 AUDIO
    TITLE "0:"
    INDEX 01 00:12:22
  TRACK 13 AUDIO
    TITLE "2:cjc044_5490"
    INDEX 01 00:13:69
  TRACK 14 AUDIO
    TITLE "0:"
    INDEX 01 00:15:38
  TRACK 15 AUDIO
    TITLE "3:cjc044_5491"
    INDEX 01 00:16:08
  TRACK 16 AUDIO
    TITLE "0:"
    INDEX 01 00:17:25
  TRACK 17 AUDIO
    TITLE "4:cjc044_5492"
    INDEX 01 00:17:72
  TRACK 18 AUDIO
    TITLE "0:"
    INDEX 01 00:19:42
  TRACK 19 AUDIO
    TITLE "2:cjc044_5493"
    INDEX 01 00:21:15
  TRACK 20 AUDIO
    TITLE "0:"
    INDEX 01 00:22:46
  TRACK 21 AUDIO
    TITLE "3:cjc044_5494"
    INDEX 01 00:23:20
  TRACK 22 AUDIO
    TITLE "0:"
    INDEX 01 00:24:25
  TRACK 23 AUDIO
    TITLE "4:cjc044_5495"
    INDEX 01 00:24:74
  TRACK 24 AUDIO
    TITLE "0:"
    INDEX 01 00:26:32
  TRACK 25 AUDIO
    TITLE "2:cjc044_5496"
    INDEX 01 00:28:04
  TRACK 26 AUDIO
    TITLE "0:"
    INDEX 01 00:29:23
  TRACK 27 AUDIO
    TITLE "3:cjc044_5497"
    INDEX 01 00:29:74
  TRACK 28 AUDIO
    TITLE "0:"
    INDEX 01 00:31:63
  TRACK 29 AUDIO
    TITLE "4:cjc044_5498"
    INDEX 01 00:32:35
  TRACK 30 AUDIO
    TITLE "0:"
    INDEX 01 00:33:56
  TRACK 31 AUDIO
    TITLE "2:cjc044_5499"
    INDEX 01 00:35:29
  TRACK 32 AUDIO
    TITLE "0:"
    INDEX 01 00:36:38
  TRACK 33 AUDIO
    TITLE "3:cjc044_5500"
    INDEX 01 00:37:10
  TRACK 34 AUDIO
    TITLE "0:"
    INDEX 01 00:38:20
  TRACK 35 AUDIO
    TITLE "4:cjc044_5501"
    INDEX 01 00:38:69
  TRACK 36 AUDIO
    TITLE "0:"
    INDEX 01 00:40:03
  TRACK 37 AUDIO
    TITLE "2:cjc044_5502"
    INDEX 01 00:41:53
  TRACK 38 AUDIO
    TITLE "0:"
    INDEX 01 00:43:13
  TRACK 39 AUDIO
    TITLE "3:cjc044_5503"
    INDEX 01 00:43:60
  TRACK 40 AUDIO
    TITLE "0:"
    INDEX 01 00:45:06
  TRACK 41 AUDIO
    TITLE "4:cjc044_5504"
    INDEX 01 00:45:51
  TRACK 42 AUDIO
    TITLE "0:"
    INDEX 01 00:47:11
  TRACK 43 AUDIO
    TITLE "2:cjc044_5505"
    INDEX 01 00:48:61
  TRACK 44 AUDIO
    TITLE "0:"
    INDEX 01 00:50:01
  TRACK 45 AUDIO
    TITLE "3:cjc044_5506"
    INDEX 01 00:50:50
  TRACK 46 AUDIO
    TITLE "0:"
    INDEX 01 00:51:42
  TRACK 47 AUDIO
    TITLE "4:cjc044_5507"
    INDEX 01 00:52:14
  TRACK 48 AUDIO
    TITLE "0:"
    INDEX 01 00:53:35
  TRACK 49 AUDIO
    TITLE "2:cjc044_5508"
    INDEX 01 00:55:14
  TRACK 50 AUDIO
    TITLE "0:"
    INDEX 01 00:56:12
  TRACK 51 AUDIO
    TITLE "3:cjc044_5509"
    INDEX 01 00:56:61
  TRACK 52 AUDIO
    TITLE "0:"
    INDEX 01 00:57:54
  TRACK 53 AUDIO
    TITLE "4:cjc044_5510"
    INDEX 01 00:58:26
  TRACK 54 AUDIO
    TITLE "0:"
    INDEX 01 00:59:32
  TRACK 55 AUDIO
    TITLE "2:cjc044_5511"
    INDEX 01 01:01:03
  TRACK 56 AUDIO
    TITLE "0:"
    INDEX 01 01:02:26
  TRACK 57 AUDIO
    TITLE "3:cjc044_5512"
    INDEX 01 01:02:71
  TRACK 58 AUDIO
    TITLE "0:"
    INDEX 01 01:03:53
  TRACK 59 AUDIO
    TITLE "4:cjc044_5513"
    INDEX 01 01:04:21
  TRACK 60 AUDIO
    TITLE "0:"
    INDEX 01 01:05:44
  TRACK 61 AUDIO
    TITLE "2:cjc044_5514"
    INDEX 01 01:07:14
  TRACK 62 AUDIO
    TITLE "0:"
    INDEX 01 01:08:50
  TRACK 63 AUDIO
    TITLE "3:cjc044_5515"
    INDEX 01 01:09:24
  TRACK 64 AUDIO
    TITLE "0:"
    INDEX 01 01:10:37
  TRACK 65 AUDIO
    TITLE "4:cjc044_5516"
    INDEX 01 01:11:09
  TRACK 66 AUDIO
    TITLE "0:"
    INDEX 01 01:12:46
  TRACK 67 AUDIO
    TITLE "2:cjc044_5517"
    INDEX 01 01:14:17
  TRACK 68 AUDIO
    TITLE "0:"
    INDEX 01 01:15:40
  TRACK 69 AUDIO
    TITLE "3:cjc044_5518"
    INDEX 01 01:16:14
  TRACK 70 AUDIO
    TITLE "0:"
    INDEX 01 01:17:65
  TRACK 71 AUDIO
    TITLE "4:cjc044_5519"
    INDEX 01 01:18:37
  TRACK 72 AUDIO
    TITLE "0:"
    INDEX 01 01:19:62
  TRACK 73 AUDIO
    TITLE "2:cjc044_5520"
    INDEX 01 01:21:37
  TRACK 74 AUDIO
    TITLE "0:"
    INDEX 01 01:22:66
  TRACK 75 AUDIO
    TITLE "3:cjc044_5521"
    INDEX 01 01:23:40
  TRACK 76 AUDIO
    TITLE "0:"
    INDEX 01 01:24:61
  TRACK 77 AUDIO
    TITLE "4:cjc044_5522"
    INDEX 01 01:25:33
  TRACK 78 AUDIO
    TITLE "0:"
    INDEX 01 01:26:64
  TRACK 79 AUDIO
    TITLE "2:cjc044_5523"
    INDEX 01 01:28:39
  TRACK 80 AUDIO
    TITLE "0:"
    INDEX 01 01:29:70
  TRACK 81 AUDIO
    TITLE "3:cjc044_5524"
    INDEX 01 01:30:44
  TRACK 82 AUDIO
    TITLE "0:"
    INDEX 01 01:31:47
  TRACK 83 AUDIO
    TITLE "4:cjc044_5525"
    INDEX 01 01:32:19
  TRACK 84 AUDIO
    TITLE "0:"
    INDEX 01 01:33:52
  TRACK 85 AUDIO
    TITLE "2:cjc044_5526"
    INDEX 01 01:35:27
  TRACK 86 AUDIO
    TITLE "0:"
    INDEX 01 01:36:37
  TRACK 87 AUDIO
    TITLE "3:cjc044_5527"
    INDEX 01 01:37:13
  TRACK 88 AUDIO
    TITLE "0:"
    INDEX 01 01:38:22
  TRACK 89 AUDIO
    TITLE "4:cjc044_5528"
    INDEX 01 01:38:67
  TRACK 90 AUDIO
    TITLE "0:"
    INDEX 01 01:40:05
  TRACK 91 AUDIO
    TITLE "2:cjc044_5529"
    INDEX 01 01:41:57
  TRACK 92 AUDIO
    TITLE "0:"
    INDEX 01 01:42:61
  TRACK 93 AUDIO
    TITLE "3:cjc044_5530"
    INDEX 01 01:43:31
  TRACK 94 AUDIO
    TITLE "0:"
    INDEX 01 01:44:23
  TRACK 95 AUDIO
    TITLE "4:cjc044_5531"
    INDEX 01 01:44:70
  TRACK 96 AUDIO
    TITLE "0:"
    INDEX 01 01:45:73
  TRACK 97 AUDIO
    TITLE "2:cjc044_5532"
    INDEX 01 01:47:46
  TRACK 98 AUDIO
    TITLE "0:"
    INDEX 01 01:49:02
  TRACK 99 AUDIO
    TITLE "3:cjc044_5533"
    INDEX 01 01:49:51
  TRACK 100 AUDIO
    TITLE "0:"
    INDEX 01 01:51:11
  TRACK 101 AUDIO
    TITLE "4:cjc044_5534"
    INDEX 01 01:51:58
  TRACK 102 AUDIO
    TITLE "0:"
    INDEX 01 01:53:12
  TRACK 103 AUDIO
    TITLE "2:cjc044_5535"
    INDEX 01 01:54:62
  TRACK 104 AUDIO
    TITLE "0:"
    INDEX 01 01:56:02
  TRACK 105 AUDIO
    TITLE "3:cjc044_5536"
    INDEX 01 01:56:49
  TRACK 106 AUDIO
    TITLE "0:"
    INDEX 01 01:57:57
  TRACK 107 AUDIO
    TITLE "4:cjc044_5537"
    INDEX 01 01:58:27
  TRACK 108 AUDIO
    TITLE "0:"
    INDEX 01 01:59:40
